<!--?xml version="1.0" encoding="utf-8"?-->
<!-- Svg Vector Icons : http://www.onlinewebfonts.com/icon -->

<svg version="1.1" xmlns="http://www.w3.org/2000/svg" xmlns:xlink="http://www.w3.org/1999/xlink" x="0px" y="0px" viewBox="0 0 256 256" enable-background="new 0 0 256 256" xml:space="preserve">
<metadata> Svg Vector Icons : http://www.onlinewebfonts.com/icon </metadata>
<g><g><path fill="#ffffff" data-title="Layer 0" xs="0" d="M177,127.2H54.3c-2.6,0-4.7-2.1-4.7-4.7s2.1-4.7,4.7-4.7H177c2.6,0,4.7,2.1,4.7,4.7S179.5,127.2,177,127.2z"/><path fill="#ffffff" data-title="Layer 1" xs="1" d="M177,155.4H54.3c-2.6,0-4.7-2.1-4.7-4.7c0-2.6,2.1-4.7,4.7-4.7H177c2.6,0,4.7,2.1,4.7,4.7C181.6,153.3,179.5,155.4,177,155.4z"/><path fill="#ffffff" data-title="Layer 2" xs="2" d="M143.5,183.6H54.3c-2.6,0-4.7-2.1-4.7-4.7c0-2.6,2.1-4.7,4.7-4.7h89.2c2.6,0,4.7,2.1,4.7,4.7C148.2,181.5,146.1,183.6,143.5,183.6z"/><path fill="#ffffff" data-title="Layer 3" xs="3" d="M89.9,81.3c6.8-2.8,11.5-9.4,11.5-17.1c0-10.2-8.3-18.5-18.5-18.5s-18.5,8.3-18.5,18.5c0,7.7,4.8,14.4,11.5,17.1c-9.5,3-16.5,11.9-16.5,22.4c0,2.6,2.1,4.7,4.7,4.7s4.7-2.1,4.7-4.7c0-7.8,6.3-14.1,14.1-14.1c7.8,0,14.1,6.3,14.1,14.1c0,2.6,2.1,4.7,4.7,4.7c2.6,0,4.7-2.1,4.7-4.7C106.3,93.2,99.4,84.3,89.9,81.3z M82.9,55c5.1,0,9.2,4.1,9.2,9.2c0,5.1-4.1,9.2-9.2,9.2c-5.1,0-9.2-4.1-9.2-9.2C73.7,59.1,77.9,55,82.9,55z"/><path fill="#ffffff" data-title="Layer 4" xs="4" d="M209.1,74.6v-15L149.9,10H25v212.1h34.5V246H231V74.6H209.1z M155.4,30.9l38.1,31.9l-38.1,0.4V30.9L155.4,30.9z M37.5,22.5h105.4v53.3l53.7-0.6v134.4H37.5V22.5L37.5,22.5z M221.6,236.7H68.9v-14.5h140.3V84h12.5L221.6,236.7L221.6,236.7z"/></g></g>
</svg>